<svg width="148" height="144" viewBox="0 0 148 144" fill="none" xmlns="http://www.w3.org/2000/svg">
<path fill-rule="evenodd" clip-rule="evenodd" d="M72.7619 5.47688C73.6217 4.40155 75.1905 4.22688 76.2659 5.08675L147.064 61.6988C148.139 62.5587 148.314 64.1274 147.454 65.2028C146.594 66.2781 145.025 66.4528 143.95 65.5929L73.152 8.98088C72.0767 8.12101 71.902 6.55222 72.7619 5.47688Z" fill="#242424"/>
<path fill-rule="evenodd" clip-rule="evenodd" d="M76.6565 5.47688C77.5164 6.55222 77.3417 8.12101 76.2664 8.98088L5.46849 65.5929C4.39316 66.4528 2.82436 66.2781 1.96449 65.2028C1.10462 64.1274 1.27929 62.5587 2.35463 61.6988L73.1525 5.08675C74.2279 4.22688 75.7966 4.40155 76.6565 5.47688Z" fill="#242424"/>
<path fill-rule="evenodd" clip-rule="evenodd" d="M25.1507 46.9999C26.5276 46.9999 27.6437 48.1161 27.6437 49.493V141.488C27.6437 142.864 26.5276 143.981 25.1507 143.981C23.7739 143.981 22.6577 142.864 22.6577 141.488V49.493C22.6577 48.1161 23.7739 46.9999 25.1507 46.9999Z" fill="#242424"/>
<path fill-rule="evenodd" clip-rule="evenodd" d="M124.268 46.9999C125.645 46.9999 126.761 48.1161 126.761 49.493V141.488C126.761 142.864 125.645 143.981 124.268 143.981C122.891 143.981 121.775 142.864 121.775 141.488V49.493C121.775 48.1161 122.891 46.9999 124.268 46.9999Z" fill="#242424"/>
<path fill-rule="evenodd" clip-rule="evenodd" d="M22.6577 141.487C22.6577 140.11 23.7739 138.994 25.1507 138.994H124.268C125.645 138.994 126.761 140.11 126.761 141.487C126.761 142.864 125.645 143.98 124.268 143.98H25.1507C23.7739 143.98 22.6577 142.864 22.6577 141.487Z" fill="#242424"/>
<path d="M75.2184 80.9234L93.686 87.369V113.663C93.686 114.174 93.4784 114.664 93.1088 115.025C92.7392 115.386 92.238 115.589 91.7153 115.589H83.8327C83.31 115.589 82.8088 115.386 82.4392 115.025C82.0696 114.664 81.862 114.174 81.862 113.663V100.182H62.1554V113.663C62.1554 114.174 61.9477 114.664 61.5782 115.025C61.2086 115.386 60.7074 115.589 60.1847 115.589H52.302C51.7794 115.589 51.2781 115.386 50.9086 115.025C50.539 114.664 50.3314 114.174 50.3314 113.663V87.9155C45.7545 86.3206 42.4487 82.0862 42.4487 77.0717C42.4487 76.0502 42.864 75.0705 43.6031 74.3481C44.3423 73.6258 45.3448 73.22 46.3901 73.22C47.4354 73.22 48.4379 73.6258 49.177 74.3481C49.9161 75.0705 50.3314 76.0502 50.3314 77.0717C50.3333 78.0926 50.7492 79.0712 51.4879 79.7932C52.2266 80.5151 53.228 80.9215 54.2727 80.9234H75.2184ZM105.51 67.4424V71.2941C105.51 73.3372 104.679 75.2966 103.201 76.7413C101.723 78.1859 99.7179 78.9976 97.6273 78.9976H93.686V83.2802L77.9207 77.7782V59.7389C77.9207 58.0237 80.0416 57.1643 81.2843 58.3776L84.6443 61.6648H91.2497C92.5935 61.6648 94.1749 62.6181 94.7748 63.7941L95.6566 65.5165H103.539C104.062 65.5165 104.563 65.7194 104.933 66.0806C105.302 66.4418 105.51 66.9316 105.51 67.4424ZM91.7153 67.4424C91.7153 67.0615 91.5997 66.6891 91.3832 66.3724C91.1667 66.0557 90.8589 65.8089 90.4988 65.6631C90.1387 65.5174 89.7425 65.4792 89.3602 65.5535C88.9779 65.6278 88.6268 65.8113 88.3512 66.0806C88.0756 66.3499 87.8879 66.6931 87.8118 67.0667C87.7358 67.4402 87.7748 67.8275 87.924 68.1794C88.0731 68.5313 88.3257 68.8321 88.6498 69.0437C88.9739 69.2553 89.3549 69.3682 89.7446 69.3682C90.2673 69.3682 90.7685 69.1653 91.1381 68.8042C91.5077 68.443 91.7153 67.9532 91.7153 67.4424Z" fill="#242424"/>
<path d="M61.5355 11.8407C60.5571 9.52363 59.1463 7.4239 57.3821 5.65909C55.6165 3.889 53.5349 2.48234 51.2504 1.5156C48.8815 0.509165 46.3408 -0.00598593 43.7756 5.24757e-05C40.1769 5.24757e-05 36.6658 1.00793 33.6146 2.91169C32.8846 3.3671 32.1912 3.86731 31.5342 4.41231C30.8773 3.86731 30.1838 3.3671 29.4538 2.91169C26.4026 1.00793 22.8915 5.24757e-05 19.2928 5.24757e-05C16.7015 5.24757e-05 14.1904 0.507723 11.818 1.5156C9.52596 2.48615 7.46018 3.88224 5.68638 5.65909C3.91985 7.42191 2.50871 9.52214 1.53291 11.8407C0.518271 14.2522 0 16.8129 0 19.4483C0 21.9344 0.496372 24.525 1.48182 27.1604C2.30667 29.3628 3.4892 31.6473 5.00022 33.9543C7.39448 37.605 10.6866 41.4125 14.7744 45.2723C21.5484 51.6705 28.2567 56.0902 28.5414 56.2694L30.2714 57.4042C31.0379 57.9044 32.0233 57.9044 32.7898 57.4042L34.5198 56.2694C34.8044 56.0827 41.5055 51.6705 48.2868 45.2723C52.3745 41.4125 55.6667 37.605 58.0609 33.9543C59.5719 31.6473 60.7618 29.3628 61.5793 27.1604C62.5648 24.525 63.0611 21.9344 63.0611 19.4483C63.0684 16.8129 62.5502 14.2522 61.5355 11.8407Z" fill="#FFC41E"/>
</svg>
