<svg width="31" height="31" viewBox="0 0 31 31" fill="none" xmlns="http://www.w3.org/2000/svg">
<path d="M29.3122 10.219C29.5218 9.51571 29.3122 9 28.3211 9H25.0379C24.2025 9 23.8207 9.44614 23.6111 9.93615C23.6111 9.93615 21.9418 14.0482 19.5764 16.7145C18.8128 17.4903 18.464 17.7353 18.0478 17.7353C17.8397 17.7353 17.5373 17.4903 17.5373 16.7871V10.219C17.5373 9.37506 17.2963 9 16.6001 9H11.441C10.92 9 10.6056 9.39019 10.6056 9.76223C10.6056 10.5607 11.7883 10.7453 11.9096 12.9956V17.8775C11.9096 18.9467 11.7195 19.1418 11.3003 19.1418C10.1879 19.1418 7.48112 15.0146 5.87471 10.29C5.56181 9.37204 5.24592 9.00151 4.40753 9.00151H1.12584C0.18714 9.00151 0 9.44766 0 9.93766C0 10.8178 1.11236 15.1734 5.18154 20.934C7.89433 24.8676 11.7135 27 15.1928 27C17.2783 27 17.5358 26.5266 17.5358 25.71V22.7367C17.5358 21.79 17.7349 21.5994 18.3951 21.5994C18.8802 21.5994 19.7156 21.8474 21.6634 23.7424C23.8881 25.9897 24.2564 26.9985 25.5065 26.9985H28.7882C29.7254 26.9985 30.194 26.5251 29.9245 25.5905C29.6295 24.6604 28.5666 23.3068 27.1563 21.7053C26.3898 20.7918 25.2445 19.8088 24.8956 19.3173C24.4091 18.6836 24.5498 18.4038 24.8956 17.8412C24.8971 17.8427 28.896 12.1533 29.3122 10.219V10.219Z" fill="#E8A700"/>
</svg>
