<svg width="31" height="31" viewBox="0 0 31 31" fill="none" xmlns="http://www.w3.org/2000/svg">
<path d="M15.4964 10.9981C13.0175 10.9981 10.9945 13.0211 10.9945 15.5C10.9945 17.9789 13.0175 20.0019 15.4964 20.0019C17.9752 20.0019 19.9982 17.9789 19.9982 15.5C19.9982 13.0211 17.9752 10.9981 15.4964 10.9981ZM28.9985 15.5C28.9985 13.6357 29.0154 11.7884 28.9107 9.92748C28.806 7.76602 28.3129 5.84773 26.7324 4.26716C25.1485 2.68322 23.2336 2.19351 21.0722 2.08881C19.2079 1.98412 17.3606 2.001 15.4997 2.001C13.6355 2.001 11.7882 1.98412 9.92734 2.08881C7.76592 2.19351 5.84766 2.68659 4.26712 4.26716C2.6832 5.85111 2.19351 7.76602 2.08881 9.92748C1.98412 11.7917 2.001 13.6391 2.001 15.5C2.001 17.3609 1.98412 19.2116 2.08881 21.0725C2.19351 23.234 2.68658 25.1523 4.26712 26.7328C5.85103 28.3168 7.76592 28.8065 9.92734 28.9112C11.7916 29.0159 13.6389 28.999 15.4997 28.999C17.364 28.999 19.2113 29.0159 21.0722 28.9112C23.2336 28.8065 25.1518 28.3134 26.7324 26.7328C28.3163 25.1489 28.806 23.234 28.9107 21.0725C29.0188 19.2116 28.9985 17.3643 28.9985 15.5V15.5ZM15.4964 22.4268C11.6632 22.4268 8.5697 19.3332 8.5697 15.5C8.5697 11.6668 11.6632 8.57319 15.4964 8.57319C19.3295 8.57319 22.423 11.6668 22.423 15.5C22.423 19.3332 19.3295 22.4268 15.4964 22.4268ZM22.7067 9.90722C21.8118 9.90722 21.089 9.18448 21.089 8.2895C21.089 7.39452 21.8118 6.67179 22.7067 6.67179C23.6017 6.67179 24.3244 7.39452 24.3244 8.2895C24.3247 8.50202 24.283 8.7125 24.2018 8.90889C24.1206 9.10528 24.0015 9.28373 23.8512 9.434C23.7009 9.58427 23.5225 9.70342 23.3261 9.78462C23.1297 9.86583 22.9192 9.90749 22.7067 9.90722V9.90722Z" fill="#E8A700"/>
</svg>
